<svg xmlns="http://www.w3.org/2000/svg" viewBox="0 0 36 36"><!-- favicon.svg, originally 1f5c3.svg ("Card File Box" emoji) by Twitter (X) is CC-BY-4.0 licensed: https://github.com/twitter/twemoji/blob/master/LICENSE-GRAPHICS. Alterations: Minified SVG. Original: https://github.com/twitter/twemoji/blob/master/assets/svg/1f5c3.svg --><path fill="#67757F" d="M35 20c0 2.209-1.791 2-4 2H5c-2.209 0-4 .209-4-2L3 8c.125-1.917 1.791-4 4-4h22c2.209 0 3.791 2.208 4 4l2 12z"/><path fill="#CCD6DD" d="M28 13a2 2 0 01-2 2H10a2 2 0 01-2-2V5a2 2 0 012-2h16a2 2 0 012 2v8z"/><path fill="#E1E8ED" d="M30 17a2 2 0 01-2 2H8a2 2 0 01-2-2V9a2 2 0 012-2h20a2 2 0 012 2v8z"/><path fill="#F5F8FA" d="M32 21a2 2 0 01-2 2H6a2 2 0 01-2-2v-8a2 2 0 012-2h24a2 2 0 012 2v8z"/><path fill="#9AAAB4" d="M35 31a4 4 0 01-4 4H5a4 4 0 01-4-4V20a4 4 0 014-4h26a4 4 0 014 4v11z"/><path fill="#67757F" d="M14 12zm0 0z"/><path fill="#FCAB40" d="M22 1h-5a2 2 0 00-2 2v1h4a2 2 0 012 2h1a2 2 0 002-2V3a2 2 0 00-2-2z"/><path fill="#5DADEC" d="M18 5h-5a2 2 0 00-2 2v1h4a2 2 0 012 2h1a2 2 0 002-2V7a2 2 0 00-2-2z"/><path fill="#E75A70" d="M16 12a2 2 0 01-2 2H9a2 2 0 01-2-2v-1a2 2 0 012-2h5a2 2 0 012 2v1z"/><path fill="#67757F" d="M25 28a2 2 0 01-2 2H13a2 2 0 01-2-2v-5a2 2 0 012-2h10a2 2 0 012 2v5zm-11-4z"/><path fill="#E1E8ED" d="M23 27a1 1 0 01-1 1h-8a1 1 0 01-1-1v-3a1 1 0 011-1h8a1 1 0 011 1v3z"/></svg>
